<svg xmlns="http://www.w3.org/2000/svg" width="102" height="19" fill="none"><g fill="#111" clip-path="url(#a)"><path d="M1.42523 17.3435C.530294 16.0812.0860396 14.5677.160754 13.0358V6.65115C.0523784 5.10273.468815 3.56245 1.3462 2.26653c.86933-1 2.21283-1.461537 4.18858-1.461537 1.97574 0 3.24021.461537 4.03051 1.307697.85801 1.07171 1.28011 2.41366 1.18541 3.76923v1.53846H6.87828V5.65115c.03128-.52327-.04946-1.04716-.23709-1.53846-.10029-.19832-.25924-.3629-.45642-.47257-.19717-.10966-.42354-.1594-.64999-.14282-.55321 0-.94836.15385-1.10642.53846-.17878.54656-.259 1.11912-.23709 1.69231v8.23073c-.04174.5562.06727 1.1132.31612 1.6154.15806.3846.55321.5385 1.10642.5385.5532 0 .86932-.1539 1.02738-.5385.17969-.5198.26004-1.0673.23709-1.6154v-1.8461h3.87242v1.5384c.0804 1.3777-.3392 2.7391-1.18541 3.8462-.7903.9231-2.1338 1.3846-4.03051 1.3846-1.89672-.0769-3.31925-.5384-4.10955-1.5384ZM15.4135 1.03577h4.5047l3.3192 17.53843h-3.6353l-.6323-3.6923h-2.608l-.6322 3.6923h-3.7144l3.3983-17.53843Zm3.2402 11.53843-.9483-6.84613-.9484 6.84613h1.8967ZM26.0034 3.95884h-2.687V1.03577h9.4046v2.84615h-2.687V18.5742h-4.0306V3.95884ZM39.9127 1.03577h6.9546v1.84615h-4.5047v5.76923h3.6354v1.76925h-3.6354v6.4615h4.5047v1.7693h-7.0336V1.03577h.079ZM48.9221 1.03577h1.7386l5.137 11.61543V1.03577h2.0547V18.5742h-1.5806L51.0559 6.57423V18.5742h-2.1338V1.03577ZM60.2234 1.03577h6.9546v1.84615h-4.5047v5.76923h3.6353v1.76925h-3.6353v6.4615h4.5047v1.7693h-6.9546V1.03577ZM69.2327 1.03577h3.6354c1.4301-.096153 2.8513.28358 4.0305 1.07692.8694.69231 1.2645 1.92308 1.2645 3.53846 0 2.23077-.7113 3.61539-2.2128 4.07693l2.5289 8.76922h-2.4499l-2.3709-8.2308h-1.9757v8.2308h-2.529V1.03577h.079Zm3.4774 7.53846c.8147.06535 1.6268-.15271 2.2918-.61538.4742-.38462.7113-1.15385.7113-2.3077.0219-.57319-.0583-1.14575-.2371-1.6923-.1779-.39219-.4834-.71655-.8693-.92308-.5444-.24143-1.1419-.34717-1.7387-.30769h-1.1064v5.76923h.9484v.07692ZM81.3243 17.2665c-.8216-1.3449-1.2072-2.8999-1.1065-4.4615V6.95884c-.0194-1.11474.1134-2.22705.3952-3.30769.2644-.80753.7914-1.50948 1.5016-2 .8824-.50841 1.9003-.749424 2.9241-.692309 1.6596 0 2.845.384619 3.5563 1.230769.8182 1.1173 1.2096 2.47776 1.1064 3.84615v.61539h-2.3709v-.53846c.0036-.64424-.0493-1.28759-.158-1.92308-.0667-.40158-.294-.76113-.6323-1-.4442-.28379-.9714-.41883-1.5015-.38462-.5667-.03534-1.1275.12844-1.5806.46154-.1859.15248-.3379.34028-.4466.55191-.1087.21163-.1719.44263-.1857.67886-.1041.68768-.157 1.38181-.158 2.07693v6.53847c-.0583.9961.1034 1.9929.4741 2.9231.3162.6153.9484.8461 1.8968.8461.3744.0454.7543-.018 1.0918-.1822.3375-.1643.6175-.422.8049-.7409.4175-.9727.6065-2.0239.5532-3.0769v-1.2308h-2.2919V9.88192h4.5837v8.69228h-1.5805l-.2371-2c-.2072.6703-.6387 1.2539-1.2258 1.6581-.5871.4042-1.2961.6058-2.0145.5727-.653.0374-1.3053-.0836-1.8984-.3521-.5931-.2685-1.1085-.6762-1.4998-1.1864ZM94.8384 12.4204 90.9659 1.11269h2.3709l2.766 8.46153 2.6871-8.46153h2.3711L97.2883 12.4204v6.1538h-2.3709v-6.1538h-.079Z"/></g><defs><clipPath id="a"><path fill="#fff" d="M.160744.804993h101v18h-101z"/></clipPath></defs></svg>